<?xml version="1.0" encoding="utf-8"?>
<!-- Generator: Adobe Illustrator 16.0.0, SVG Export Plug-In . SVG Version: 6.00 Build 0)  -->
<!DOCTYPE svg PUBLIC "-//W3C//DTD SVG 1.1//EN" "http://www.w3.org/Graphics/SVG/1.1/DTD/svg11.dtd">
<svg version="1.1" id="Layer_1" xmlns="http://www.w3.org/2000/svg" xmlns:xlink="http://www.w3.org/1999/xlink" x="0px" y="0px"
	 width="24px" height="24px" viewBox="0 0 24 24" enable-background="new 0 0 24 24" xml:space="preserve">
<path fill="none" d="M0,0h24v24H0V0z"/>
<g>
	<g>
		<g>
			<path fill="#2F4FA7" d="M22.111,11.111H1.889C1.398,11.111,1,11.509,1,12s0.398,0.889,0.89,0.889h20.223
				C22.604,12.889,23,12.491,23,12S22.604,11.111,22.111,11.111z"/>
		</g>
	</g>
	<g>
		<g>
			<path fill="#2F4FA7" d="M3.146,12l6.955-6.955c0.347-0.347,0.347-0.91,0-1.257c-0.348-0.347-0.91-0.347-1.257,0l-7.583,7.583
				c-0.349,0.347-0.349,0.91,0,1.256l7.583,7.584c0.173,0.173,0.4,0.26,0.628,0.26c0.227,0,0.454-0.087,0.628-0.26
				c0.347-0.347,0.347-0.91,0-1.257L3.146,12z"/>
		</g>
	</g>
</g>
</svg>
