<?xml version="1.0" encoding="utf-8"?>
<!-- Generator: Adobe Illustrator 16.0.0, SVG Export Plug-In . SVG Version: 6.00 Build 0)  -->
<!DOCTYPE svg PUBLIC "-//W3C//DTD SVG 1.1//EN" "http://www.w3.org/Graphics/SVG/1.1/DTD/svg11.dtd">
<svg version="1.1" id="Layer_1" xmlns="http://www.w3.org/2000/svg" xmlns:xlink="http://www.w3.org/1999/xlink" x="0px" y="0px"
	 width="30px" height="30px" viewBox="0 0 30 30" enable-background="new 0 0 30 30" xml:space="preserve">
<polygon display="none" fill="#FFFFFF" points="17.343,30.835 17.343,26.146 38.49,26.146 38.49,23.852 17.343,23.852 
	17.343,19.165 11.509,25 "/>
<g display="none">
	<path display="inline" fill="#FFFFFF" d="M37.122,35.662l-5.976-5.977c1.48-1.806,2.375-4.117,2.375-6.639
		c0-5.781-4.692-10.473-10.476-10.473c-5.787,0-10.473,4.691-10.473,10.473c0,5.782,4.686,10.475,10.473,10.475
		c2.521,0,4.829-0.89,6.636-2.369l5.973,5.97c0.406,0.405,1.061,0.405,1.468,0C37.527,36.721,37.527,36.061,37.122,35.662z
		 M23.047,31.436c-4.63,0-8.394-3.763-8.394-8.388s3.764-8.394,8.394-8.394c4.626,0,8.395,3.769,8.395,8.394
		S27.673,31.436,23.047,31.436z"/>
</g>
<g display="none">
	<g display="inline">
		<g>
			<path fill="#FFFFFF" d="M36.75,22.752l-11.381-8.333c-0.221-0.161-0.518-0.161-0.737,0L13.25,22.752
				c-0.278,0.204-0.338,0.594-0.135,0.872c0.203,0.278,0.594,0.339,0.872,0.135L25,15.695l11.014,8.063
				c0.109,0.082,0.239,0.121,0.367,0.121c0.191,0,0.383-0.089,0.504-0.256C37.088,23.346,37.027,22.956,36.75,22.752z"/>
		</g>
	</g>
	<g display="inline">
		<g>
			<path fill="#FFFFFF" d="M33.732,23.9c-0.344,0-0.623,0.279-0.623,0.623v9.932h-4.99v-5.421c0-1.722-1.4-3.12-3.119-3.12
				c-1.721,0-3.12,1.398-3.12,3.12v5.421h-4.989v-9.932c0-0.344-0.279-0.623-0.625-0.623c-0.344,0-0.623,0.279-0.623,0.623v10.556
				c0,0.344,0.278,0.623,0.623,0.623h6.239c0.328,0,0.597-0.253,0.622-0.575c0.001-0.016,0.002-0.031,0.002-0.048v-6.045
				c0-1.032,0.839-1.872,1.872-1.872c1.031,0,1.871,0.84,1.871,1.872v6.045c0,0.017,0.002,0.032,0.002,0.047
				c0.024,0.322,0.294,0.576,0.623,0.576h6.237c0.346,0,0.625-0.279,0.625-0.623V24.523C34.357,24.18,34.079,23.9,33.732,23.9z"/>
		</g>
	</g>
</g>
<path fill="#2F4FA7" d="M24.892,8.719H8.038L7.787,5.928C7.746,5.472,7.364,5.122,6.906,5.122H5.107
	c-0.489,0-0.885,0.396-0.885,0.885c0,0.489,0.396,0.885,0.885,0.885h0.99c0.541,6.023-0.857-9.543,1.019,11.343
	c0.071,0.816,0.514,1.703,1.274,2.309c-1.371,1.752-0.119,4.336,2.113,4.336c1.854,0,3.159-1.85,2.523-3.6h4.846
	c-0.635,1.746,0.669,3.6,2.523,3.6c1.479,0,2.684-1.205,2.684-2.686c0-1.479-1.204-2.686-2.684-2.686h-9.887
	c-0.672,0-1.258-0.404-1.511-0.996l14.147-0.832c0.386-0.02,0.713-0.293,0.807-0.668l1.799-7.195
	C25.89,9.261,25.467,8.719,24.892,8.719L24.892,8.719z M10.502,23.107c-0.503,0-0.913-0.41-0.913-0.912
	c0-0.504,0.409-0.914,0.913-0.914s0.914,0.41,0.914,0.914C11.416,22.697,11.006,23.107,10.502,23.107z M20.396,23.107
	c-0.504,0-0.914-0.41-0.914-0.912c0-0.504,0.41-0.914,0.914-0.914s0.912,0.41,0.912,0.914
	C21.308,22.697,20.897,23.107,20.396,23.107z M22.392,15.953L8.759,16.754L8.196,10.49h15.562L22.392,15.953z"/>
</svg>
